<svg xmlns="http://www.w3.org/2000/svg" width="1024" height="1024">
  <title>pen-svg file</title>
  <desc>code generated svg file</desc>
  <g id="g1" transform="scale(1,1) translate(0,0)">
    <path  fill="none" stroke="#000000" stroke-width="2" d="M768 768 768 694.96 819.57 695.55 849.1 745.82 764.78 743.68 695.5 739.32 643.37 657.08 579.49 640.18 631.73 558.33 569.87 556.38 640.3 577.6 615.28 648.88 610.3 749.14 552.82 762.98 527.25 831.83 568.95 765.64 606.3 689.97 535.55 641.16 612.04 630.29 566.46 655.79 584.28 705.12 499.31 751.2 478.83 804.11 488.4 710.7 427.27 677.42 473.59 613.51 460.05 555.67 400.94 551.98 433.25 623.93 408.71 704.05 356.34 693.4 317.76 643.84 392.67 577.6 351.78 502.14 263.72 502.96 248.06 591.34 262.31 535.81 231.15 492.79 300.59 455.38 246.36 388.3 319 316.28 243.67 267.21 198.02 357.52 114.47 344.7 92.64 399.36 134.98 485.66 51.21 537.81 19.32 619.46 113.18 639.66 172.03 674.94 202.85 582.3 239.19 622.45 257.23 522.85 300.75 561.95 236.54 511.19 266.16 576.77 331.74 530.67 344.38 626.82 370.79 707.42 311.26 639.54 255.28 625.11 324.68 611.18 258.09 605.52 205.95 540.39 142.8 511.38 62.07 564.78 125.15 521.21 194.51 546.86 199.39 490.3 135.48 490.3 214.79 470.34 299.98 481.48 362.22 475.09 416.32 540.25 413.54 617.43 482.74 604.81 458 669.54 429.54 626.78 424.05 695.75 497.38 766.95 510.19 819.71 604.38 848.03 623.92 929.21 600.99 868.75 652.94 895.94 573.03 847.09 634.66 844.59 570.64 776.3 523.98 725.47 473.35 769.63 441.47 700.3 354.48 746.46 290 770.21 349.4 783.28 373.9 697.82 320.77 685.98 246.69 641.83 279.84 684.73 356.63 654.32 419.27 684.46 466.38 626.74 535.75 593.12 490.11 542.36 489.13 624.3 490.76 692.16 486.26 756.43 451.68 827.56 498.9 863.91 530.52 791.84 585.81 768 637.91 718.82 566.81 748.55 513.62 808.29 502.02 725.47 567.47 748.99 628.91 731.56 687.21 670.49 615.76 690.05 547.77 699.83 481.07 654.87 450.99 715.79 372.8 697.47 289.86 726.28 278.46 651.56 347.31 690.03 276.29 639.56 328.97 712.78 254.44 782.65 261.01 690.98 276.46 631.42 348.17 673.24 369.64 747.36 423.86 708.34 397.78 649.66 342.86 633.44 391.83 559.01 409.91 617.6 460.31 651.98 455.18 723.78 517.63 778.27 569.36 730.69 606.32 776.48 539.65 832.88 486.57 772.18 467.43 829.03 423.42 894.04 377.45 929.08 457.9 961.18 390.15 989.05 474.14 982.49 422.39 938.98 464.01 892.91 469.69 817.23 417.34 785.72 357.94 801.31 346.6 747.41 398.81 704.12 334.28 705.22 236.76 702.08 269.14 661.94 297.07 606.41 336.44 558.98 362.2 461.53 312.97 487.42 342.82 434.81 400.79 461.66 467.76 436.48 401.36 498.59 307.3 478.63 261.08 542.35 313.9 594.97 398.52 601.09 461.71 546.85 402.08 604.72 478.98 558.58 549.74 530.45 496.21 601.71 512.76 539.47 450.12 529.62 530.35 514.98 548.91 429.82 597.47 353.08 559.35 273.33 495.01 260.64 491.26 165.75 512.68 88.92 484.62 141.76 398.2 97.68 370.5 145.19 432.38 225.79 460.06 318.38 474.39 368.12 483.75 443.74 536.97 444.66 497.58 484.78 556.75 526.99 642.98 510.73 620.66 444.09 620.86 386.45 646.14 484.62 724.02 429.6 749.1 475.18 718.87 568.86 749.51 513.27 838.99 518.79 824.38 593.13 869.69 516.42 871.26 573.7 813.59 615.89 821.66 708.12 901.96 741.84 848.86 795.4 884.89 738.5 973.22 743.59 871.46 741 830.39 791.17 775.05 759.8 793.47 677.92 823.93 740.2 875.12 773.64 907.15 858.48 905.25 785.08 963.32 735.53 1010.5 771.14 932.62 803.24 893.82 732.76 864.29 789.3 784.63 766.74 860.69 827.96 899.8 876.99 819.36 876.12 907.14 904.34 820.56 907.74 857.5 991.07 936.13 998.34 844.96 981.87 932.46 1011.99 850.75 950.97 808.76 998.54 752.03 978.31 700.38 946.88 749.77 961.48 818.04 909.94 779.08 870.08 690.44 828.99 706.34 775.51 753.29 808.46 754.96 863.93 789.19 944.65 867.81 924.75 833.61 977.55 867.82 924.56 799.65 948.46 875.04 972.58 887.47 894.16 914.03 970.91 960.02 1013.93 904.75 993.62 935.54 931.9 980.41 847.38 921.78 817.33 872.67 845.94 912.96 796.76 880.07 884.43 898.2 817.96 911.23 739.55 836.94 803.51 798.58 876.11 742.42 807.12 787.35 881.54 757.73 973.1 721.76 897.68 716.19 959.18 640.16 947.22 722.58 920.11 689.06 876.58 750.08 845.17 684.84 868.18 691.84 959.77 675.23 1010.54 768.89 1004.5 751.43 930.47 801.52 900.19 872.91 874.35 793.5 867.84 844.29 902.83 904.82 831.56 960.08 844.91 920.29 758.02 921.16 670.7 905.07 735.82 847.11 692.78 863.33 617.17 788.56 634.69 794.59 533.47 717.25 482.77 774.62 453.84 851.8 448.9 778.35 397.46 853.28 361.41 842.09 302.89 926.83 266.08 1000.32 228.29 992.63 148.2 965.08 240.59 927.12 203.93 913.27 117.96 851.02 52.41 916.56 112.17 973.13 152.51 906.42 103.52 948.41 29.36 875.94 18.78 807.97 47.23 834.51 109.1 768.08 141.84 782.88 226.18 865.19 267.99 883.45 172.4 874.9 111.75 863.4 199.79 899.08 266.09 974.42 312.73 934.72 268.24 936.09 325.53 868.86 380.56 904.2 339.63 953 298.74 909.96 359.12 877.59 284.81 805.73 326.33 714.81 350.65 631.52 305.52 627.2 242.68 552.64 280.82 636.56 249.32 568.14 311.5 634.58 371.94 709.87 398.21 796.71 359.96 802.18 437.53 771.35 355.15 710.84 417.25 764.7 421.95 729.54 492.67 820.19 453.19 880.08 467.32 797.25 508.62 777.75 443.63 796.19 532.58 757.93 594.06 841.95 562.21 915.96 609.34 877.86 514.5 791.49 471.93 789.35 382.4 837.82 414.08 783.47 485.37 836.98 551.95 760.07 526.47 800.47 591 814.78 662.95 765.33 717.18 744.41 630.01 693.76 558.02 600.57 555.58 519.63 615.78 586.57 632.08 526.21 659.33 494.95 715.57 584.7 688.8 577.87 770.84 516.24 758.9 510.29 708.01 583.69 752.88 533.59 796.19 581.84 855.57 530.58 880.45 469.46 881.7 414.97 967.66 430.04 889.82 490.18 851.58 520.54 797.98 475.07 757.11 506.33 659.72 455.77 589.98 485.43 539.04 491.38 630.3 560.9 689.63 534.65 621.05 618.57 628.62 577.37 709.25 490.74 726.45 425.79 657.9 373.22 644.45 432.08 702.91 351.88 755.87 324.3 833.21 335.65 912.51 277.51 970.86 270.4 907.91 244.1 858.36 206.27 787.86 252.39 739.56 327.5 762.98 327.92 673.94 363.7 605.8 341.54 689.03 302.87 643.12 388.99 597.31 429.07 669.31 359.34 618.55 310.88 686.3 410.68 663.87 468.09 691.93 526.49 770.24 550.7 720.02 587.79 787.01 654.06 709.2 563.07 743.53 648.32 706.31 696.41 623.32 616.92 668.66 672.58 739.09 706.66 696.06 660.28 725.16 717.63 679.89 645.2 677.24 699.27 633.14 670.44 688.81 600.22 675.91 694.99 659.81 759.72 652.52 668.12 632.1 707.81 683.55 681.75 738.21 674.09 656.64 739.27 597.51 815.54 644.78 753.17 617.57 764.79 709.08 692.68 733.92 773.74 712.44 722.06 739.22 789.79 786.92 838.3 703.65 877.57 659 898.41 725.66 838.75 702.94 780.63 759.52 728.41 780.46 642.05 819.1 717.67 794.58 717.18 847.03 658.54 807.84 695.05 888.91 746.86 936.95 761.01 858.67 749.1 947.08 789.46 876.67 748.21 964.71 714.45 921.81 659.01 858.21 621.36 763.24 619.63 817.86 555.55 755.85 523.4 850.27 467.56 784.29 543.77 726.85 619.89 713.99 676.25 739.84 644.26 689.59 690.34 767.96 755.49 726.75 787.09 657.82 811.97 745.31 742.31 700.68 734.61 777.04 700.25 705.09 670.79 640.58 685.39 555.76 750.79 583.63 698.03 566.99 720.79 622.04 675.17 586.21 650.92 685.04 699.79 610.97 750.94 583.49 760.8 650.12 778.93 595.93 745.84 522.86 728.12 450.72 654.47 496.63 698.99 466.99 763.69 434.16 825.66 441.71 809.4 513.18 731.43 496.16 774.63 538.68 817.56 501.92 888.86 512.71 833.13 515.73 790.91 436.1 757.31 382.04 709.94 324.95 776.63 305.61 714.62 312.78 700.33 401.23 745.14 336.2 719.24 260.07 765.12 285.27 686.14 249.55 741.7 232.96 804.28 259.86 877.93 245.26 930.19 173.57 904.69 261.96 952.05 343.69 963.71 266.9 902.61 184.94 959.55 232.09 986.26 181.48 906.73 158.18 849.73 84.66 901.94 55.39 813.98 53 892.67 66.27 950.68 43.79 1005.17 106.22 1010.72 54.74 976.69 142.58 927.72 126.63 836.72 148.08 763.97 127.31 727.86 74.79 710.13 161.62 662.81 84 728 47.24 812.91 52.95 711.93 66.65 775.9 48.55 835.89 10.89 766.85 15.81 754.91 98.68 695.77 125.85 624.95 59.65 717.26 33.43 634.42 40.09 639.22 100.22 666.35 185.37 625.05 132.21 612.65 203.97 639.75 257.44 709.95 190.94 650.86 234.02 721.89 180.72 725.71 117.13 797.12 137.35 772.19 197.07 814.97 105.87 881.19 62.89 857.43 110.08 894.87 204.24 819.4 141.98 815.43 42.57 789.52 105.22 709.78 113.2 682.13 196.2 605.24 165.74 692.1 189.3 716.09 125.06 705.51 200.2 710.64 275.87 769.7 218.73 777.57 148.77 774.98 65.86 722.21 84.69 659.22 108.48 675.71 56.63 593.87 105.49 522.69 85.69 556.83 128.3 504.89 102.91 456.32 52.91 358.9 48.44 281.59 48.16 341.07 79.67 327.04 12.41 283.75 51.8 235.64 107.77 140.12 139.42 207.27 106.78 186.4 23.29 175.81 120.26 110 151.05 164.11 123.15 99.51 110.53 29.26 38.04 14.3 89.2 12.64 15.45 99.03 44.21 177.63 62.79 231.59 37.48 186.57 109.26 204.15 48.84 283.74 17.91 323.48 72.49 290.11 19.76 298.82 85.38 268 139.42 226.58 193.6 197.88 134.67 128.83 115.64 125.69 59.21 159.44 150 190.3 241.51 185.4 175.9 87.36 146.98 17.62 164.13 15.41 80.35 81.49 70.79 84.8 148.74 92.22 205.54 148.24 140.99 157.71 67.02 178.65 139.38 186.93 238.45 225.54 292.31 192 362.77 270.82 331.19 366.21 316.46 423.48 319.83 485.57 359.07 562.9 335.91 504.02 302.33 598.45 322.5 565.09 364.17 493.82 349.26 528.81 300.87 609.11 251.83 592.03 202.35 580.6 132.14 639.22 119.81 716.75 167.38 675.8 95.49 708.45 154.48 656.15 116.45 613.6 177.08 664.25 213.31 641.26 156.19 690.2 96.86 719.66 27.46 796.76 22.34 848.91 15.4 825.3 77.49 773.89 27.25 850.19 15.32 944.63 24.69 942.63 120.72 961.99 58.63 957.78 160.34 914.67 201.19 837.53 146.41 785.73 150.71 835.52 165.57 892.36 139.12 842.24 61.8 782.1 56.71 687.99 20.55 749.84 24.13 781.53 94.36 843.13 139.48 799.82 111.86 699.28 103.24 707.62 191.25 686.53 120.24 675.1 48.27 730.05 129.75 693.49 91.13 658.88 154.52 711.16 137.77 684.99 200.24 622.75 123.17 665.41 155.49 686.64 99.99 595.04 116.33 548.35 49.11 623.38 79.61 707.68 95.87 763.12 100.79 703.71 89.19 693.53 34.92 665.68 108.01 709.07 161.36 615.3 136.18 529.12 96.58 506.51 48.68 474.66 89.34 454.86 141.45 394.46 170.71 437.23 86.01 497.42 71.84 543.38 104.5 537.1 29.82 470.39 55.09 561.98 78.87 473.7 32.91 495.7 123 544.85 178.25 480.54 139.53 548.42 120.59 647.47 141.64 552.77 136.91 580.89 42.86 515.49 96.24 421.44 124.01 378.08 206.21 390.03 148.2 307.95 188.56 377.76 226.42 340.97 165.18 350.56 225.02 309.47 192.22 339.73 114.39 400.18 148.34 453.96 90.75 360.77 90.98 266.06 91.28 243.28 166.23 277.57 125.87 205.21 159.53 151.53 110.45 105.25 24.82 45.61 41.03 66.51 114.64 87.54 198.22 112.53 258.53 57.75 233.64 123.8 269.87 62.63 302.93 12.55 322.88 70.35 305.72 23.92 236.67 11.39 142.08 80.86 103.09 19.47 83.88 69.05 171.24 128.78 177.35 89.58 142.11 68.26 232.71 126.79 297.45 112.13 245.74 134.04 165.63 142.82 231.26 85.5 250.49 125.12 166.41 85.33 126.88 158.05 152.56 254.73 180.06 184.24 194.99 264.67 161.09 313.75 207.98 270.24 238.12 229.58 180.57 221.8 256.53 173.27 309.28 270.26 338.35 213.11 269.32 200.28 353.97 133.66 398.63 85.34 449.68 37.78 509.6 76.94 555.11 168.28 588.27 238.31 617.64 296.49 546 384.93 509.38 305.23 524.39 354.61 560.2 375.99 645.11 404.65 593.77 421.34 511.04 443.44 605.65 490.16 565.79 542.81 599.51 464.59 556.37 448.95 608.76 395.89 545.89 451.92 518.23 498.6 562.85 542.41 482.07 537.97 581.11 459.27 587.3 417.26 544.86 472.44 546.26 523.84 602.82 475.33 530.83 522.66 487.41 547.55 426.43 467.75 458.57 567.83 458.31 498.08 461.13 583.85 421.89 540.36 365.31 498.94 456.85 574.26 464.93 500.74 452.6 531.87 397.36 567.01 357.66 628.11 431.63 570.47 424.21 570.59 355.68 608.14 297.86 603.14 374.28 605.04 466.81 557.86 419.96 478.54 403.5 411.69 449.32 431.06 364.57 374.53 299.77 328.98 367.13 343.52 418.09 332.35 333.63 351.23 424.25 330.17 375.01 268.71 429.17 213.36 410.15 241.17 335.57 320.25 342.73 411.4 306.96 355.91 285.5 309.17 234.09 395.62 230.2 425.52 274.27 373.92 226.23 446.07 174.32 502.88 239.34 571.64 291.81 604.71 363.81 683.4 323.05 655.03 262.61 662.57 201.82 653.25 149.8 644.09 55.51 570.85 46.48 611.64 121.62 549.5 107.99 513.83 191.43 591.57 137.82 522.27 148.56 596.51 209.26 514.71 252.73 597.93 272.48 515.81 280.41 529.32 194.82 498.1 276.17 582.12 317.06 639.14 309.05 645.36 251.28 580.71 284.03 513.7 294.11 486.1 209.91 544.46 166.22 574.23 231.15 565.24 133.35 633.78 188.78 706.98 153.16 674.34 88.62 702.36 162.36 689.88 100.03 732.08 36.97 770.85 108.68 777.15 50.15 795.65 131.51 767.32 65.56 720.95 110.45 787.28 98.27 696.89 114.44 769.17 96.92 704.34 175.37 715.54 259.27 711.88 203.56 675.29 262.92 619.34 270.71 584.67 364.57 531.75 385.94 490.49 429.43 503.46 367.89 453.23 342.03 530.77 296.94 586.38 272.12 636.46 296.93 647.19 364.3 588.92 345.73 506.08 364.56 485.45 296.12 468.61 246.69 474.22 193.81 560.77 155.36 558.43 241.75 624.68 223.37 703.61 192.34 775.18 199.95 708.24 167.7 753.34 114.33 750.65 59.21 696.11 11.82 712.26 95.12 686.77 26.2 771.11 14.86 802.5 66.32 753.5 134.35 689.84 92.62 759.6 166.99 715.32 90.82 764.35 152.2 780.68 56.06 704.02 105.11 799.65 69.92 899.58 63.09 842.37 97.61 907.42 51.82 879.97 119.06 823.7 131.59 799.61 41.56 876.52 74.59 957.26 117.86 1007.89 100.06 980.09 13.99" />
  </g>
</svg>