<svg xmlns="http://www.w3.org/2000/svg" width="1024" height="1024">
  <title>pen-svg file</title>
  <desc>code generated svg file</desc>
  <g id="g1" transform="scale(1,1) translate(0,0)">
    <path  fill="none" stroke="#000000" stroke-width="2" d="M768 768 768 681.8 731.06 740.86 779.51 701.89 749.09 786.55 806.52 865.23 744.42 847.74 818.92 875.96 818.95 956.64 888.47 947.22 989.89 958.24 934.07 988.29 1005.35 1000.9 977.87 947.28 923.04 1010.37 939.06 933.99 919.23 855.24 829.16 819.74 798.27 733.09 887.71 750.45 957.22 714.94 895.05 769.78 945.85 812.5 911.74 881.66 991.04 942.3 943.89 1008.24 931.76 954.3 1005.55 1002.39 980.85 953.67 912.19 915.15 981.56 900.35 910.46 921.18 942.55 998.2 1004.05 935.19 981.62 862.41 989.07 945.15 920.28 941.83 851.09 985.33 756.89 965.64 779.03 903.56 752.65 977.91 754.57 897.26 738.53 819.69 779.62 852.95 866.52 856.74 925.17 922.41 877.78 883.02 911.07 838.68 865.7 812.94 871.76 890.81 957.74 844.41 943.82 898.47 907.37 838.82 868.05 877.65 867.38 790.27 831.97 725.85 882.09 768.27 805.55 710.39 871.52 676.34 805.1 726.17 776.69 774.86 681.63 743.13 679.68 684.52 614 706.22 558.46 729.68 617.97 735.42 593.23 670.14 582.69 579.73 644.74 589.79 595.28 618.02 509.94 652.54 597.81 647.35 556.7 605.99 485.75 540.31 450.3 497.33 447.47 437.69 476.66 523.38 552.03 456.51 614.35 516.48 591.44 462.83 580.61 542.42 603.48 640.08 617.85 703.87 637.26 636.86 705.77 664.04 639.93 710.34 643.4 642.93 643.2 565.07 574.13 552.49 492.64 523.79 525.47 462.16 574.97 479.56 529.19 393.16 491.48 352.09 439.58 340.79 404.29 303.2 327.9 329.21 257.43 290.16 222.78 330.75 232.63 265.96 230.19 335.33 180.51 389.52 145.05 338.27 158.8 417.33 142.54 320.88 128.92 232.04 33.79 202.34 63.34 256.68 53.99 194.16 117.89 216.55 71.34 263.27 17.04 255.52 29.09 194.19 79.24 258.99 40.22 214.01 115.33 277.06 95.62 373.61 178.68 389.53 266.31 373.19 212.89 414.09 129.11 434.93 183.76 447.84 118.66 488.29 114.32 427.75 162.47 401.98 121.1 322.83 108.08 244.61 137.97 154.75 171.82 246.49 261.09 219.88 311.33 240.69 253.92 173.32 191.5 127.74 172.3 62.12 223.55 81.82 304.12 110.06 359.19 160.33 411.09 94.19 316.61 109.36 316.07 172.22 301.57 250.86 327.19 322.79 274.99 299.5 206.85 296.61 265.12 215.48 191.73 262.32 216.87 173.68 213.68 101.36 266.55 122.34 268.27 191.14 236.54 239.21 325.37 249.04 374.34 280.22 403.47 199.1 491.44 177.45 442.24 226 437.45 307 427.85 214.29 490.91 212.81 493.45 116.83 485.65 191.46 499.65 119.92 586.74 125.52 633.98 37.53 733.32 37.23 722.44 137.79 656.94 128.65 691.46 60.59 767.05 121.51 754.28 30.19 823.33 10.78 838.29 67.16 774.75 140.49 849.84 79.14 851.66 137.76 865.67 233.2 809.23 239.97 740.85 169.29 825.97 216.93 887.76 237.91 940.06 182.91 1003.14 105.06 940.11 24.7 957.56 105.28 944.45 20.91 979.74 64.96 939.75 27.59 960.36 108.26 903.91 171.01 973.18 191.74 1013 103.66 988.58 151.49 987.5 57.74 1004.56 140.25 988.89 226.12 971.35 294.71 976.97 347.93 887.63 352.83 818.77 363.63 857.01 457.49 917.51 427.27 1007.38 428.84 955.34 364.47 1008.03 386.9 911.35 402.46 860.22 465.3 926.62 489.81 899.09 412.62 959.08 485.75 993.53 411.22 932.36 343.74 868.51 401.99 810.6 346.39 867.04 373.59 944.75 394.1 999.81 338.95 926.08 279.19 987.05 200.46 896.32 230.36 942.99 169.59 943.11 247.91 913.73 165.12 996.9 149.66 1007.22 210.47 983.95 270.93 884.39 248.59 934.86 286.19 1010.23 295.45 975.25 221.38 910.98 219.13 847.59 282.73 895.4 228.44 976.19 179.19 956.81 234.23 871.81 280.48 849.2 185.65 778.7 206.52 776.99 288.17 716.08 302.08 768.24 315.11 847.6 354.11 766.62 328.69 804.92 406.2 738.21 447.04 654.84 476.19 660.35 419.2 743.62 374.46 806.72 386.46 819.67 286.88 900.18 347.33 961.41 265.72 991.13 308.36 968.73 214.28 925.44 178.56 891.52 243.26 874.12 192.57 794.72 157.61 873.09 186.63 916.46 137.05 990.9 117.73 953.97 194.8 933.64 130.45 909.3 190.29 962.71 169.53 983.2 250.74 943.61 300.65 963.6 235.47 899.54 223.39 805.32 262.64 725.43 302.76 691.53 354.84 635.36 336.99 651.03 386.86 662.02 464.45 569.66 483.25 519.18 569.93 447.45 571.63 462.61 635.95 401.25 706.13 472.06 639.91 487.16 723.12 467.01 671.28 402.49 707.03 484.92 736.94 560.27 796.71 620.6 728.92 594.57 796.39 522.11 819.93 533.89 917.48 548.71 816.25 637.27 844.46 730.15 854.68 790.46 894.83 858.92 946.43 906.94 925.02 880.36 995.9 931.95 991.61 863.01 984.54 858.98 896.4 909.29 937.85 836.99 992.89 845 921 782.18 968.98 784.71 908.31 787.56 814.57 787.23 752.39 691.93 745.9 769.25 762.83 828.42 811.56 788.03 855.09 840.4 939.71 891.52 946.71 859.53 1009.72 765.54 984.23 695.28 982.17 643.5 988.57 616.71 904.36 636.62 954.3 723.01 1006.47 765.78 957.77 765.25 894.97 723.58 968.57 685.06 894.92 735.84 916.92 794.18 957.78 877.92 1001.75 905.11 916.33 997.05 872.43 997.11 931.66 908.8 893.43 935.04 846.33 868.93 855.88 943.58 846.93 856.09 838.85 903.88 786.13 934.25 731.34 865.84 724.89 813.97 778.06 878.8 740.47 810.95 692.64 766.71 718.48 703.9 735.78 716.26 803.39 644.36 768.29 718.1 778.77 764.76 757.56 721.09 707.95 814.49 700.94 803.23 769.21 776.87 864.59 838.76 828.55 834.04 925.58 839.12 985.62 787.77 966.48 858.54 953.88 792.92 876.28 844.82 949.21 811.79 1001.76 872.85 966.24 817.71 946.72 862.43 901.01 858.18 845.7 916.66 803.38 954.72 877.16 866.11 862.14 939.32 812.6 967.89 766.19 938.02 703.28 876.91 665.73 813.51 590.17 869.09 602.25 810.93 615.73 900.94 575.15 947.12 486.98 932.88 421.35 960.99 369.27 901.66 388.85 829.47 353.2 789.52 393.36 841.39 406.31 879.63 492.44 961.54 535.45 924.08 483.2 844.86 437.48 755.02 391.03 766.68 307.65 775.22 253.72 804.86 310.73 852.75 257.6 825.05 353.75 776.91 411.23 821.89 382.47 908.47 426.91 914.62 365.96 930.88 311.69 929.52 414.05 992.84 385.88 1012.69 459.77 934.9 482.87 944.91 386.21 858.44 393.53 792.91 373.38 834.06 440.17 845.61 500.72 900.43 444.71 883.21 504.02 902.04 409.09 979.65 451.37 965.28 398.16 968.49 307.57 1000.53 267.29 988.21 176.3 999.57 116.12 1010.81 167.34 1005.41 229.03 918.22 251.93 862.21 305.42 954.74 331.61 970.94 404.04 949.33 472.56 879.53 482.5 792.19 466.61 848.31 500.19 848.6 576.55 784.02 610.05 819 554.19 797.99 650.09 838.07 608.33 889.69 602.4 833.82 560.49 840.63 639.49 822.61 554.3 741.69 520.78 709.97 472.18 780.42 483.13 782.51 571.6 855.25 510.34 934.46 483.28 1009.58 517.82 960.49 451.33 972.26 366.57 1001.44 456.25 1007.56 541.04 976.05 592.75 951.87 687.23 971.29 736.04 915.88 763.21 985.06 811.78 941.06 860.71 906.63 910.81 868.67 978.58 803.64 977.56 879.74 975.04 969.31 945.03 899.9 1009.2 857.84 940.1 859.88 867.86 868.2 939.53 841.3 859.11 876.41 902.16 872.14 842.56 785.29 850.66 869.51 830.21 841.04 736.02 756.37 704.52 767.61 767.46 776.52 862.77 792.3 761.88 829.72 688.57 860.6 603.08 844.69 658.57 828.21 585.05 792.81 639.87 885.12 644.34 935.78 697.66 992.93 744.01 959.46 820.51 883.3 860.07 854.07 782.44 829.42 870.6 751.22 928.68 785.06 888.05 852.49 915.41 806.87 844.2 731.65 878.15 807.12 814.26 737.09 792.16 799.2 847.93 805.43 779.09 739.66 811.55 662.24 772.95 717.66 748.9 784.95 798.36 701.95 793.38 709.06 734.82 778.39 719.32 794.84 660.38 713.27 623.11 750.86 561.52 807.83 570.33 766.74 639.23 825.45 682.55 771.24 671.38 716.52 676.31 779.22 612.83 728.75 673 682.14 761.94 726.76 693.82 660.22 730.47 640.07 809.9 616.15 737.99 666.46 803.97 685.06 725.59 724.88 669.91 762.69 606.97 834.26 670.95 892.32 673.79 903.28 769.32 925.95 827.84 974.22 805.78 1010.65 842.99 957.64 885.57 894.86 906.23 917.33 979.56 956.64 909.69 967.2 853.96 908.06 852.47 908.22 952.35 962.8 932.4 960.2 873.42 972.41 947.2 905.33 947.26 958.89 916.3 933.75 865.09 883.74 846.4 939.84 824.27 856.92 785.33 909.09 796.51 963.91 825.26 901.61 810.8 906.27 905.85 841.6 961 793.97 938.79 776.79 887.21 763.11 805.34 768.19 719.4 757.91 811.25 754.06 726.16 661.61 686.45 629.97 773.91 605.75 714.62 537.02 684.53 527.8 775.15 454.58 815.78 493.5 857.8 465.45 906.84 437.36 832.39 363.63 836.94 419.81 770.44 353.96 729.92 428.46 684.84 367.77 661.79 421.9 660.84 495.01 616.67 576.19 640.39 531.37 677.73 478.46 683.03 544.77 735.74 474.21 703.1 406.6 699.81 358.97 722.87 329.71 783.47 289.13 828.64 349.46 754.46 357.94 845.87 304.55 819.69 224 784.17 290.36 712.66 266.61 634.4 192.2 704.27 131.61 741.5 87.98 672.9 28.91 686.68 108.38 677.66 44.8 638.95 18.8 736.33 48.68 688.42 123.35 620.11 86.47 675.5 60.24 601.74 50.59 696.61 45.13 642.41 116.3 641.11 132.65 697.29 102.47 768.05 116.7 711.04 201.44 673.93 199.33 589.89 119.02 649.66 90.06 712.45 108.59 619.46 114.96 673.68 64.01 660.46 48.41 743.79 35.27 690.85 50.14 630.41 150.68 622.98 240.32 587.37 202.44 529.47 145.12 444.69 78.11 511.35 60.45 452.41 56.69 352.32 76.6 446.1 15.58 457.67 41.7 394.09 94.22 389.26 56.32 333.79 125.17 397.41 54.71 449.53 112.56 427.63 180.3 411.33 136.95 347.2 179.65 300.4 118.58 251.32 206.6 229.61 240.91 138.55 279.85 210.26 307.51 270.19 335.5 325.92 332.28 389.96 385.16 393.56 308.16 342.99 243.16 374.02 214.6 309.48 297.76 336.93 376.46 336.53 430.17 386.9 459.95 295.38 494.63 346.22 444.87 267.84 351.1 267.73 323.27 330.45 363.56 279.41 272.17 242.76 222.05 167.31 127.66 164.71 203.95 217.61 134.58 234.07 220.61 281.07 267.57 221.69 270.52 165.16 255.27 219.97 349.81 246.49 298.77 317.39 337.47 262.92 393.16 346.27 438.2 306.65 393.73 270.88 441.56 226.9 481.42 152.23 429.38 197.67 499.61 215.35 561.84 192.84 518.86 125.87 423.02 160.86 484.81 152.31 571.39 166.02 650.05 126.53 692.96 205.16 696.9 150.71 650.74 222.82 616.23 162.85 609.79 80.04 682.68 116.59 670.78 26.33 711.68 70.65 640.36 103.94 607.91 198.26 509.66 211.29 563.23 282.59 488.29 233.44 474.06 289.74 462.97 381.58 389.46 383.12 451.14 416.18 489.89 506.43 541.75 533.37 602.06 513.44 557.74 483.8 570.81 427.81 494.57 395.96 545.37 307.06 613.01 355.54 600.62 409.88 516.38 426.7 428.93 444.55 398.46 537.92 488.28 548.12 463.78 493.24 366.54 475.18 325.99 442.58 275.03 465.91 195.79 494.69 157.11 410.5 132.89 480.36 204.64 465.57 161.74 494.13 236.08 535.91 258.95 439.92 316.56 410.82 361.13 376.84 430.57 430.12 511.21 413.08 579.93 453.38 519.56 420.54 554.66 365.56 610.63 410.42 674.8 369.93 634.19 338.73 607.62 432.42 593.11 358.33 512.47 295.66 610.49 298.19 611.19 237.35 527.23 228.95 541.69 151.69 522.32 76.72 535.35 24.31 522.84 96.76 562.93 131.34 467.44 105.28 391.59 96.3 397.73 44.63 385.07 107.8 429.85 57.26 412.67 110.72 403.6 198.79 398.71 112.73 443.1 22.55 372.33 96.38 411.71 132.78 471.9 134.68 495.9 55.48 511.34 142.72 476.7 190.52 542.17 180.3 486.68 175.95 495.98 228.02 511.67 127.66 452.73 120.18 513 74.9 462.78 109.08 386.66 108.51 349.18 66.39 385.96 107.55 316.4 101.57 247.14 125.48 341.98 133.89 286.25 142.41 362.96 194.72 422.71 112.96 436.95 19.61 415.94 116.53 360.1 110.67 429.24 92.37 404.12 37.85 364.73 103.76 405.57 68.3 442.92 148.66 468.74 243.34 402.74 273.62 392.13 196.24 333.78 165.51 411.53 201.27 322.58 169.03 244.52 168.18 229.11 251.45 152.95 268.38 162.26 202.03 71.44 181.63 31.02 111.22 56.69 25.9 108.64 104.39 50.32 77.28 133.89 77.31 197.89 85.11 224.66 167.22 150.9 103.35 64.06 95.18 52.4 30.82 111.02 34.18 111.95 124.09 115.62 211.56 147.27 163.03 72.51 210.97 40.92 168.75 16.9 120.99 70.8 106.05 130.43 168.52 175.24 234.33 260.58 217.29 212.46 175.8 161.79 146.87 164.1 74.84 136.1 140.34 237.77 147.23 193.08 116.58 264.73 149.51 318.06 146.98 394.79 96.85 448.62 175.81 507.89 140.26 593.36 94.2 540.32 108.17 551.05 160.18 609.64 111.18 629.87 159.4 618.2 222.44 531.24 172.1 599.85 115.44 530.53 111.48 520.62 13.69 431.19 24.82 463.93 65.51 555.44 51.89 507.84 139.92 450.1 186.11 412.37 131.5 373.28 192.37 297.13 163.6 299.06 241.12 383.11 277.21 387.02 198.82 304.93 198.35 297.76 294.25 283.28 377.34 220.52 385.21 177.26 331.35 118.3 254.64 97.3 194.51 140.72 228.33 185.9 270.19 249.73 299.54 182 285.75 192.15 340.06 192.5 276.71 183.84 212.16 172.82 153.74 237.37 219.4 189.32 153.13 126.34 131.44 212.98 139.49 270.11 133.74 343.79 142.88 324.95 194.73 318.44 143.34 370.8 115.5 443.36 127.47 390.44 128.69 416.92 188.95 388.62 263.78 377.82 213.02 332.18 279.81 233.82 277.48 203.16 355.85 152.78 382.62 102.7 399.35 65.96 348.26 152.01 391.47 149.08 320.8 79.86 356.26 123.39 303.33 100.06 242.33 90.2 303.72 109.07 247.75 169.92 180.09 94.57 154.31 61.55 97.06 115.51 37.55 43.96 97.82 119.66 154.36 81.89 240.25 143.86 199.19 218.95 153.04 149.34 136.17 145.88 72.6 123.27 20.26" />
  </g>
</svg>